<svg id="Layer_1" data-name="Layer 1" xmlns="http://www.w3.org/2000/svg" width="64" height="64" viewBox="0 0 64 64"><defs><style>.cls-1{fill:#000;}.cls-2{fill:#fff;}</style></defs><title>darth-vader</title><g id="darth-vader"><path class="cls-1" d="M32.75,61.32q-1.31,0-2.65,0C12.77,61.22,3,55.87,2.23,54.18c-.34-.77-.59-1.33,6.07-18a4.34,4.34,0,0,1-.59-1.81c-.11-.87-.26-3.06-.35-5.09C7.18,25.08,7.29,24.6,8,24a3.42,3.42,0,0,1,1.55-.71c.13-2.49.67-7.85,2.89-11.41C15.23,7.31,18.17,5.22,24,3.59a26.33,26.33,0,0,1,6.4-.92A34.09,34.09,0,0,1,40.1,3.88c5.34,1.44,9.79,5.45,11.08,10a46.92,46.92,0,0,1,1.39,8.69c1.79.53,2.15,1,2.4,1.43.17.31.35.67.43,5.49.06,4,0,5.17-.56,5.76,7.41,17,7.18,18,7,18.6C61.12,56.74,46.59,61,32.75,61.32Z"/><path class="cls-2" d="M52.62,34.38a1.6,1.6,0,0,0,.87-.23c.41-.26.15-9,0-9.38a9.49,9.49,0,0,0-2.52-.9,48.8,48.8,0,0,0-1.4-9.55c-1.19-4.18-5.48-7.62-9.88-8.8a29.31,29.31,0,0,0-15.18-.3c-5.26,1.46-8,3.24-10.65,7.55s-2.67,11.86-2.67,11.86a9.51,9.51,0,0,0-2.07.63c-.29.26.09,7.25.3,8.87s1,1.48,1,1.48S3.47,52.79,3.78,53.49s9.15,6,26.32,6.15,29.84-5.19,30.11-6.24S52.62,34.38,52.62,34.38ZM33.34,6.26c.45-.18,6.67.17,10.42,3.45s4.06,5.61,3.81,5.66-2.52-1-2.64-.77-.15.8.06.92,2.69,1.1,2.82,1.26a4.07,4.07,0,0,1,.27,1,16.92,16.92,0,0,0-3-1.14c-.12.17-.23.92,0,1s3,1.3,3,1.3l.1.79s-2.82-1.18-3-1.14-.36.8-.14.92,3.16,1.26,3.24,1.42.41,1.37.41,1.37L47,21.72s.31.87.48.95,1.3.43,1.31.76A33.23,33.23,0,0,1,49,26.76c-.13,0-2.2-6.45-5.22-7.08s-9,1.76-9,1.76a74.91,74.91,0,0,1-1.4-9.34C33.23,8.47,32.89,6.44,33.34,6.26Zm-3.29.08a4,4,0,0,1,1.88,0C32,6.5,33,18,33.21,19.56A9.43,9.43,0,0,1,33.48,22a2.84,2.84,0,0,1-3.37.21s.54-3.68.55-4.89S29.85,6.47,30.05,6.34ZM14.54,16a19.56,19.56,0,0,1,7.76-8.23A20.63,20.63,0,0,1,28.8,6.33c0,.17.67,10.24.66,11.61a26.86,26.86,0,0,1-.57,4s-4-2.45-8.16-1.38a10.45,10.45,0,0,0-7.49,7.39S12.64,20.27,14.54,16ZM56.41,53.08c-.21-.08-5-5.71-5.39-5.83s-.44.59-.44.59,5.18,5.5,5.06,5.63a9,9,0,0,1-1.15.57s-4.33-5-4.5-4.93-.69.6-.4.8a46.22,46.22,0,0,1,4.07,4.36,6.44,6.44,0,0,1-1.2.4A47.21,47.21,0,0,0,48.9,51c-.25,0-.62.39-.49.55s3.33,3.29,3.21,3.46a3.88,3.88,0,0,1-1.16.36s-2.48-2.61-2.65-2.6-.74.31-.53.6,2.39,2.19,2.26,2.28a4.52,4.52,0,0,1-1,.19c-.12,0-2-2-2.22-2s-.79.19-.66.47,1.84,1.79,1.63,1.92-5.17,1.67-15.76,1.51-14.84-1.85-14.84-1.85a46.86,46.86,0,0,0-4.22-3.69c-.38,0-.78.6-.61.72a29.17,29.17,0,0,1,2.86,2.6c-.17,0-3.27-.92-4.32-1.1a7.64,7.64,0,0,1-2.27-.61c0-.12,6-14.44,6.27-14.41S18.73,49.5,18.73,49.5a2.77,2.77,0,0,0,1.2,2.89,3.91,3.91,0,0,0,3.49-.25l15.51.08c.13,0,2.66,1.27,3.69-.67s.43-2.68.43-2.68,4-11.27,3.76-11.51A5.51,5.51,0,0,0,45.06,37s-2.75,10.32-3,10.33S40.8,47,40.38,47a3.25,3.25,0,0,0-.71,0L34.2,39.37s1.1-6-3.27-6-3.15,6-3.15,6-1-.06-2,1.51-3.39,6.29-3.39,6.29a3.68,3.68,0,0,0-1.45.2c-.66.27-1.07.48-1.07.48s-3.54-8.29-3.46-8.46.82-2.15,1.2-2.15,2.93.39,3.93.4,1.16-.11,1.2-.28.27-.8.11-.79-5.14-.54-5.52-.62-1.07,2.19-1.4,2.29-1.33.24-1.21,0,2.17-5.14,2.29-5.1,7.53,1.07,9.73.64,2.77-1.11,3.07-2.16a32.27,32.27,0,0,0,.26-6.59,19,19,0,0,0-6.2-1.31c-2.79-.1-4.67-.14-5.87,1.81S7.28,53.24,7.11,53.29A3.39,3.39,0,0,1,6.19,53s4.91-14,6.78-19.25,3.47-11.59,9.47-11.49c2.21,0,7.19,2.45,9.76,1.85s6.89-2.79,9.52-2.82,4.06,2.48,6.36,7.85,7.13,17.33,7,17.33S46.94,28.6,45.38,26.26s-2.66-3-5.86-2.77-6.81,1-6.84,1.42,0,7.17.48,7.74,3.06.72,6.18.52,5-.33,5.78-.64a10.33,10.33,0,0,0,1.68-1L54.62,48a29.5,29.5,0,0,0-2.94-2.55c-.21,0-.31.8-.19.88s3.67,3.33,4,3.7a12.27,12.27,0,0,1,1.61,2.63C56.95,52.78,56.62,53.16,56.41,53.08ZM33.29,49.94c.38.07.67.28.67-.06s-.19-7.75.06-7.8.75,1.52.75,1.52-.13,6.42,0,6.46.88.27.84.06.05-4.75.05-4.75l1.43,2.26-.79.06s-.08,2,.17,2a4.81,4.81,0,0,0,.71,0c.12,0,.11,1.16.11,1.16s-7.26-.2-9.8-.14-2.75.11-2.75.11a6.7,6.7,0,0,0-.55-1.95l-.61-1.28s4.78-7.2,5.16-7.34a14.57,14.57,0,0,0,2.25,0l2.29-.1S32.91,49.86,33.29,49.94Zm-2.72-8.81c-.12,0,.13,8.54.13,8.71s.63.23.88,0-.12-8.46-.17-8.62S30.85,41,30.57,41.13Zm-1.83.13s.29,8.5.3,8.66.71,0,.87,0-.29-8.5-.38-8.66S28.95,41.17,28.74,41.26ZM27,44.8c-.08.21.29,5.08.29,5.08a2.75,2.75,0,0,0,.79-.06c.16-.09-.21-5.08-.21-5.25S27,44.66,27,44.8Zm-1.74,2c0,.21.12,3.08.12,3.08a4.13,4.13,0,0,0,.79-.14,13.86,13.86,0,0,0-.25-3.45C25.82,46.16,25.28,46.63,25.25,46.8ZM47.59,35a9.93,9.93,0,0,0-1.79.21c-1.79.21-4.38.27-4.58.36-.37.18.11,1.08.11,1.08s.83,0,2.29,0A17.73,17.73,0,0,0,48,36C48.07,35.91,47.8,35.08,47.59,35ZM42,38.39c-.17,0-.53.3-.49.51A10.71,10.71,0,0,0,43,40.53c.21.16.4-.64.4-.64S42.31,38.3,42,38.39Zm-1.55,1.29c-.12,0-.54.26-.49.47a19.25,19.25,0,0,0,2.43,2.11c.13,0,.2-.38.28-.59S40.7,39.58,40.41,39.68Zm-1,1.48c-.16.13-.58.18-.7.39s2.81,2.6,2.81,2.6a2.56,2.56,0,0,0,.36-.68C42,43.18,39.41,41.16,39.41,41.16ZM17,51.75c.12,0,.24-.21.23-.63s-2.62-2.65-2.82-2.72-.4.8-.35,1A26.41,26.41,0,0,0,17,51.75ZM13.67,50.5s-.52.72-.48,1a35.07,35.07,0,0,0,4.08,3.07c.13,0,.24-.46.23-.67S13.67,50.5,13.67,50.5Zm3.9-33.06c.25-.09,0-1.21.8-3.06a7.09,7.09,0,0,1,2.72-2.86c.16-.21-.14-.71-.6-.82s-1.52.79-2.65,2.4S16.1,16.77,16.27,17A1.89,1.89,0,0,0,17.57,17.44ZM44.91,14a10.22,10.22,0,0,0,1.43.51c.38.07.2-.5.11-.75s-1.31-.6-1.6-.54S44.74,13.94,44.91,14Z"/></g></svg>